<svg width="29" height="22" viewBox="0 0 29 22" fill="none" xmlns="http://www.w3.org/2000/svg">
<path d="M28.9766 2.8125C27.7526 3.4375 26.6068 4.07552 25.5391 4.72656C24.4974 5.35156 23.599 5.97656 22.8438 6.60156C21.9583 7.35677 21.2292 8.16406 20.6562 9.02344C20.0833 9.88281 19.5885 10.9896 19.1719 12.3438H20.8516C22.4922 12.3438 23.6641 12.7474 24.3672 13.5547C25.0964 14.362 25.4609 15.2604 25.4609 16.25C25.4609 17.5 24.9792 18.6979 24.0156 19.8438C23.0521 20.9635 21.737 21.5234 20.0703 21.5234C18.2995 21.5234 16.9844 21.0286 16.125 20.0391C15.2917 19.0495 14.875 17.7474 14.875 16.1328C14.875 14.0234 15.3307 12.1094 16.2422 10.3906C17.1536 8.67188 18.2995 7.13542 19.6797 5.78125C21.0339 4.47917 22.4401 3.39844 23.8984 2.53906C25.3828 1.67969 26.6849 0.950521 27.8047 0.351562L28.9766 2.8125ZM14.5234 2.8125C13.2995 3.4375 12.1536 4.07552 11.0859 4.72656C10.0443 5.35156 9.14583 5.97656 8.39062 6.60156C7.50521 7.35677 6.77604 8.16406 6.20312 9.02344C5.63021 9.88281 5.13542 10.9896 4.71875 12.3438H6.39844C8.03906 12.3438 9.21094 12.7474 9.91406 13.5547C10.6432 14.362 11.0078 15.2604 11.0078 16.25C11.0078 17.5 10.526 18.6979 9.5625 19.8438C8.59896 20.9635 7.28385 21.5234 5.61719 21.5234C3.84635 21.5234 2.53125 21.0286 1.67188 20.0391C0.838542 19.0495 0.421875 17.7474 0.421875 16.1328C0.421875 14.0234 0.877604 12.1094 1.78906 10.3906C2.70052 8.67188 3.84635 7.13542 5.22656 5.78125C6.58073 4.47917 7.98698 3.39844 9.44531 2.53906C10.9297 1.67969 12.2318 0.950521 13.3516 0.351562L14.5234 2.8125Z" fill="#777777"/>
</svg>
